<svg id="Layer_1" data-name="Layer 1" xmlns="http://www.w3.org/2000/svg" viewBox="0 0 473 473">
  <defs>
    <style>
      .cls-1 {
        fill: #4b79ad;
      }

      .cls-2 {
        fill: #a7afb7;
      }

      .cls-3 {
        fill: #414242;
      }

      .cls-4 {
        fill: #707375;
      }
    </style>
  </defs>
  <title>helmet</title>
  <rect class="cls-1" width="473" height="473" rx="74.07" ry="74.07"/>
  <g>
    <path class="cls-2" d="M109,260s10-146,137-143S382,254,382,254s6,4,5,16,11,54,2,59-15,9-15,12,4,21-6,23-18-14-19-9-1,25-4,21-6-21-6-31,9-15,3-21-34-19-86-20-100,16-106,22,2,14,2,25,6,17,0,18-5,6-5,3-2-6-7-7-18-3-18-8,2-9-5-13-14-3-14-19-6-51,0-58Z" transform="translate(-14 -14)"/>
    <path class="cls-3" d="M166,241s-53.92-3.15-59,23.92-5,63.62,7,80.35S127,367,140,365s4-32,7-41,9-1.62,9-1.62S200,305,247,307s48.66,1.55,95,17c0,0,17.6,40.12,21.8,40.06S371,352,373,348s17-17,18-25,4-35,0-44-10-36-26-41S166,241,166,241Z" transform="translate(-14 -14)"/>
    <path class="cls-4" d="M126,192s38-23,125-19,112,15,117,23,19,58,20,64,5,2,7,9,3,41,0,56-18,21-19,26,1,14-9,17-15-1-16,6-10,9-12,4-4-23-3-32,4-13,4-19-2-14,8-15,9,13,10,31,10,20,10,14,4-16,10-20,7-15,7-27,6-21-4-23-14-14-10-15,9-1,7-10-2-16-44-14-77,1-91,1-94,1-104,0-26,3-25,15,11,4,11,8,4,17-6,19-10-2-11,12,1,31,7,37,11,13,11,17,9,9,10,6-1-52,3-52,17-1,17,9-1,18,1,25,0,36-3,36-11,1-11-4-2-9-10-9-17-7-17-11-2-7-8-13-10-4-10-26-4-50,0-53,7,0,9-10S122,199,126,192Z" transform="translate(-14 -14)"/>
    <rect class="cls-3" x="189" y="186" width="40" height="14" transform="translate(-30.42 5.47) rotate(-5.13)"/>
    <rect class="cls-3" x="191" y="205" width="40" height="14" transform="translate(-32.12 5.72) rotate(-5.13)"/>
    <rect class="cls-3" x="192" y="224" width="40" height="14" transform="translate(-33.81 5.89) rotate(-5.13)"/>
    <rect class="cls-3" x="256" y="186" width="40" height="14" transform="translate(519.63 395.91) rotate(-174.87)"/>
    <rect class="cls-3" x="254" y="205" width="40" height="14" transform="translate(513.94 433.66) rotate(-174.87)"/>
    <rect class="cls-3" x="252" y="224" width="40" height="14" transform="translate(508.25 471.4) rotate(-174.87)"/>
  </g>
</svg>
