<svg id="Layer_1" data-name="Layer 1" xmlns="http://www.w3.org/2000/svg" viewBox="0 0 473 473">
  <defs>
    <style>
      .cls-1 {
        fill: #4b79ad;
      }

      .cls-2 {
        fill: #b72c47;
      }

      .cls-3 {
        fill: #b25928;
      }

      .cls-4 {
        fill: #e0bf36;
      }
    </style>
  </defs>
  <title>planet</title>
  <rect class="cls-1" width="473" height="473" rx="74.07" ry="74.07"/>
  <circle class="cls-2" cx="236" cy="237" r="129"/>
  <path class="cls-3" d="M234,262,121.56,239.6s-3.74,19.4,4.23,45.18C126,285.28,234,262,234,262Z" transform="translate(-14 -14)"/>
  <path class="cls-3" d="M348.75,168,278,192l91.11,9.39S361.5,181,348.75,168Z" transform="translate(-14 -14)"/>
  <path class="cls-3" d="M362.37,314.4,269,331l71.6,11.82S357.73,324.81,362.37,314.4Z" transform="translate(-14 -14)"/>
  <circle class="cls-4" cx="120" cy="95" r="6"/>
  <circle class="cls-4" cx="145.5" cy="101.5" r="6.5"/>
  <circle class="cls-4" cx="121.5" cy="112.5" r="4.5"/>
  <circle class="cls-4" cx="209.5" cy="130.5" r="4.5"/>
  <circle class="cls-4" cx="126" cy="362" r="4"/>
  <circle class="cls-4" cx="190.5" cy="387.5" r="3.5"/>
  <circle class="cls-4" cx="313.5" cy="88.5" r="3.5"/>
  <circle class="cls-4" cx="374.5" cy="303.5" r="3.5"/>
  <circle class="cls-4" cx="351.5" cy="327.5" r="3.5"/>
  <circle class="cls-4" cx="387" cy="332" r="3"/>
  <polygon class="cls-4" points="348 79.25 353.81 91.01 366.79 92.9 357.39 102.05 359.61 114.98 348 108.88 336.39 114.98 338.61 102.05 329.21 92.9 342.19 91.01 348 79.25"/>
  <circle class="cls-4" cx="324.5" cy="105.5" r="2.5"/>
  <circle class="cls-4" cx="373.5" cy="105.5" r="2.5"/>
  <circle class="cls-4" cx="362" cy="133" r="2"/>
</svg>
