<svg id="Layer_1" data-name="Layer 1" xmlns="http://www.w3.org/2000/svg" viewBox="0 0 473 473">
  <defs>
    <style>
      .cls-1 {
        fill: #4b79ad;
      }

      .cls-2 {
        fill: #3f3f3f;
      }

      .cls-3 {
        fill: #757575;
      }

      .cls-4 {
        fill: #ccc;
      }
    </style>
  </defs>
  <title>ship</title>
  <rect class="cls-1" width="473" height="473" rx="74.07" ry="74.07"/>
  <path class="cls-2" d="M92,270l-8,4s-8-4-21,13-24,27-15,41,19,16,30,16,27-1,36,0,16-5,16-9,23-9,28-11,7,7,22,1,85-33,87-35,3-11,8-11,11-3,8,0-11,9-8,10,40-16,51-19a61.6,61.6,0,0,0,18-8s-3,10,7,12,32,1,48-4,20-10,18-20-18-21-18-21H387l-2-4h3l1-7s9,6,14,5,11-1,23-5,20-9,18-18,0-9,0-9V176l-14-7h-6s-8-6-20,0-28,18-28,18l-13,3-4-15s14-1,19-6,5-11-1-16-16-6-31-4-48,17-49,22,9,18,18,16l9-2,1,22s-19-8-33-8-43,10-47,11-11-4-26,2-14,18-14,18l-77,26s-3-4-16,0S95,264,92,270Z" transform="translate(-14 -14)"/>
  <path class="cls-3" d="M58,297s-9,32,23,43Z" transform="translate(-14 -14)"/>
  <path class="cls-3" d="M102,267s-3,19-9,22-25,8-16,24,42,5,44,5,19,1,21,4,15-4,15-4l-36-56S103,264,102,267Z" transform="translate(-14 -14)"/>
  <path class="cls-3" d="M170,313s164-56,172-63l-31-37c-.77-.08-1.55-.14-2.35-.19C258,209.8,132,266,132,266Z" transform="translate(-14 -14)"/>
  <path class="cls-4" d="M144,267s134-49,160-49S114,285,144,267Z" transform="translate(-14 -14)"/>
  <path class="cls-4" d="M303,172s4,13,22,9,52-14,52-19-6-12-31-8S302,170,303,172Z" transform="translate(-14 -14)"/>
  <path class="cls-4" d="M349,261s42-28,54-22,14,19,2,22S350,280,349,261Z" transform="translate(-14 -14)"/>
  <path class="cls-4" d="M413,172s-32,14-32,20,7,26,21,26,36-8,37-17,5-20,0-23A43.26,43.26,0,0,0,413,172Z" transform="translate(-14 -14)"/>
  <path class="cls-3" d="M306,174a22,22,0,0,0,20,5c12-3,47-13,48-17S306,174,306,174Z" transform="translate(-14 -14)"/>
  <path class="cls-3" d="M352,261s2,8,12,7,47-10,47-14S352,261,352,261Z" transform="translate(-14 -14)"/>
  <path class="cls-3" d="M385,199s39-22,44-23,14,7,9,12-49,15-51,16S385,199,385,199Z" transform="translate(-14 -14)"/>
  <polygon class="cls-4" points="65 287 115 269 127 287 72 301 65 287"/>
</svg>
