<svg id="Layer_1" data-name="Layer 1" xmlns="http://www.w3.org/2000/svg" viewBox="0 0 473 473">
  <defs>
    <style>
      .cls-1 {
        fill: #4b79ad;
      }

      .cls-2 {
        fill: #333;
      }

      .cls-3 {
        fill: #a5a0a0;
      }

      .cls-4 {
        fill: #878787;
      }

      .cls-5 {
        fill: #ffedcc;
      }

      .cls-6 {
        fill: #bcbcbc;
      }

      .cls-7 {
        fill: #919191;
      }
    </style>
  </defs>
  <title>trooper</title>
  <rect class="cls-1" width="473" height="473" rx="74.07" ry="74.07"/>
  <g>
    <rect class="cls-2" x="380.68" y="206.98" width="9.27" height="8.94"/>
    <rect class="cls-2" x="380.68" y="198.04" width="9.27" height="8.94"/>
    <rect class="cls-2" x="371.43" y="206.98" width="9.26" height="8.94"/>
    <rect class="cls-2" x="371.43" y="198.04" width="9.26" height="8.94"/>
    <rect class="cls-2" x="362.15" y="206.98" width="9.27" height="8.94"/>
    <rect class="cls-2" x="362.15" y="198.04" width="9.27" height="8.94"/>
    <rect class="cls-2" x="352.9" y="215.91" width="9.26" height="8.94"/>
    <rect class="cls-2" x="352.9" y="206.98" width="9.26" height="8.94"/>
    <rect class="cls-2" x="352.9" y="198.04" width="9.26" height="8.94"/>
    <rect class="cls-2" x="343.62" y="215.91" width="9.27" height="8.94"/>
    <rect class="cls-3" x="343.62" y="206.98" width="9.27" height="8.94"/>
    <rect class="cls-2" x="343.62" y="198.04" width="9.27" height="8.94"/>
    <rect class="cls-2" x="334.36" y="224.85" width="9.26" height="8.94"/>
    <rect class="cls-2" x="334.36" y="215.91" width="9.26" height="8.94"/>
    <rect class="cls-3" x="334.36" y="206.98" width="9.26" height="8.94"/>
    <rect class="cls-2" x="334.36" y="198.04" width="9.26" height="8.94"/>
    <rect class="cls-4" x="325.09" y="242.72" width="9.27" height="8.94"/>
    <rect class="cls-4" x="325.09" y="233.78" width="9.27" height="8.94"/>
    <rect class="cls-2" x="325.09" y="224.85" width="9.27" height="8.94"/>
    <rect class="cls-2" x="325.09" y="215.91" width="9.27" height="8.94"/>
    <rect class="cls-4" x="325.09" y="206.98" width="9.27" height="8.94"/>
    <rect class="cls-2" x="325.09" y="198.04" width="9.27" height="8.94"/>
    <rect class="cls-4" x="315.82" y="251.65" width="9.27" height="8.94"/>
    <rect class="cls-4" x="315.82" y="242.72" width="9.27" height="8.94"/>
    <rect class="cls-5" x="315.82" y="233.78" width="9.27" height="8.94"/>
    <rect class="cls-2" x="315.82" y="224.85" width="9.27" height="8.94"/>
    <rect class="cls-2" x="315.82" y="215.91" width="9.27" height="8.94"/>
    <rect class="cls-4" x="315.82" y="206.98" width="9.27" height="8.94"/>
    <rect class="cls-2" x="315.82" y="198.04" width="9.27" height="8.94"/>
    <rect class="cls-4" x="306.56" y="251.65" width="9.26" height="8.94"/>
    <rect class="cls-5" x="306.56" y="242.72" width="9.26" height="8.94"/>
    <rect class="cls-5" x="306.56" y="233.78" width="9.26" height="8.94"/>
    <rect class="cls-2" x="306.56" y="224.85" width="9.26" height="8.94"/>
    <rect class="cls-2" x="306.56" y="215.91" width="9.26" height="8.94"/>
    <rect class="cls-3" x="306.56" y="206.98" width="9.26" height="8.94"/>
    <rect class="cls-2" x="306.56" y="198.04" width="9.26" height="8.94"/>
    <rect x="297.29" y="403.56" width="9.27" height="8.94"/>
    <rect x="297.29" y="394.63" width="9.27" height="8.94"/>
    <rect class="cls-4" x="297.29" y="251.65" width="9.27" height="8.94"/>
    <rect class="cls-4" x="297.29" y="242.72" width="9.27" height="8.94"/>
    <rect class="cls-5" x="297.29" y="233.78" width="9.27" height="8.94"/>
    <rect class="cls-4" x="297.29" y="224.85" width="9.27" height="8.94"/>
    <rect class="cls-3" x="297.29" y="215.91" width="9.27" height="8.94"/>
    <rect class="cls-3" x="297.29" y="206.98" width="9.27" height="8.94"/>
    <rect class="cls-2" x="297.29" y="198.04" width="9.27" height="8.94"/>
    <rect x="288.03" y="403.56" width="9.26" height="8.94"/>
    <rect x="288.03" y="394.63" width="9.26" height="8.94"/>
    <rect class="cls-4" x="288.03" y="242.72" width="9.26" height="8.94"/>
    <rect class="cls-4" x="288.03" y="233.78" width="9.26" height="8.94"/>
    <rect class="cls-4" x="288.03" y="224.85" width="9.26" height="8.94"/>
    <rect class="cls-4" x="288.03" y="215.91" width="9.26" height="8.94"/>
    <rect class="cls-4" x="288.03" y="206.98" width="9.26" height="8.94"/>
    <rect class="cls-2" x="288.03" y="198.04" width="9.26" height="8.94"/>
    <rect class="cls-2" x="288.03" y="189.11" width="9.26" height="8.94"/>
    <rect x="278.76" y="403.56" width="9.27" height="8.94"/>
    <rect class="cls-6" x="278.76" y="394.63" width="9.27" height="8.94"/>
    <rect x="278.76" y="385.69" width="9.27" height="8.94"/>
    <rect x="278.76" y="376.76" width="9.27" height="8.94"/>
    <rect x="278.76" y="367.82" width="9.27" height="8.94"/>
    <rect class="cls-4" x="278.76" y="233.78" width="9.27" height="8.94"/>
    <rect class="cls-4" x="278.76" y="224.85" width="9.27" height="8.94"/>
    <rect class="cls-4" x="278.76" y="215.91" width="9.27" height="8.94"/>
    <rect class="cls-4" x="278.76" y="206.98" width="9.27" height="8.94"/>
    <rect class="cls-2" x="278.76" y="198.04" width="9.27" height="8.94"/>
    <rect class="cls-2" x="278.76" y="189.11" width="9.27" height="8.94"/>
    <rect class="cls-2" x="278.76" y="180.17" width="9.27" height="8.94"/>
    <rect x="269.5" y="403.56" width="9.26" height="8.94"/>
    <rect class="cls-6" x="269.5" y="394.63" width="9.26" height="8.94"/>
    <rect class="cls-2" x="269.5" y="385.69" width="9.26" height="8.94"/>
    <rect class="cls-6" x="269.5" y="376.76" width="9.26" height="8.94"/>
    <rect class="cls-6" x="269.5" y="367.82" width="9.26" height="8.94"/>
    <rect x="269.5" y="358.89" width="9.26" height="8.94"/>
    <rect x="269.5" y="349.95" width="9.26" height="8.94"/>
    <rect x="269.5" y="341.02" width="9.26" height="8.94"/>
    <rect class="cls-2" x="269.5" y="162.3" width="9.26" height="8.94"/>
    <rect class="cls-2" x="269.5" y="171.24" width="9.26" height="8.94"/>
    <rect class="cls-2" x="269.5" y="180.17" width="9.26" height="8.94"/>
    <rect class="cls-4" x="269.5" y="189.11" width="9.26" height="8.94"/>
    <rect class="cls-2" x="269.5" y="198.04" width="9.26" height="8.94"/>
    <rect class="cls-3" x="269.5" y="206.98" width="9.26" height="8.94"/>
    <rect class="cls-3" x="269.5" y="215.91" width="9.26" height="8.94"/>
    <rect class="cls-4" x="269.5" y="224.85" width="9.26" height="8.94"/>
    <rect class="cls-4" x="269.5" y="233.78" width="9.26" height="8.94"/>
    <rect x="260.23" y="403.56" width="9.27" height="8.94"/>
    <rect x="260.23" y="394.63" width="9.27" height="8.94"/>
    <rect x="260.23" y="385.69" width="9.27" height="8.94"/>
    <rect class="cls-2" x="260.23" y="376.76" width="9.27" height="8.94"/>
    <rect class="cls-2" x="260.23" y="367.82" width="9.27" height="8.94"/>
    <rect class="cls-6" x="260.23" y="358.89" width="9.27" height="8.94"/>
    <rect class="cls-6" x="260.23" y="349.95" width="9.27" height="8.94"/>
    <rect x="260.23" y="341.02" width="9.27" height="8.94"/>
    <rect x="260.23" y="332.08" width="9.27" height="8.94"/>
    <rect x="260.23" y="323.13" width="9.27" height="8.95"/>
    <rect x="260.23" y="314.2" width="9.27" height="8.94"/>
    <rect x="260.23" y="305.26" width="9.27" height="8.94"/>
    <rect x="260.23" y="296.33" width="9.27" height="8.94"/>
    <rect class="cls-7" x="260.23" y="269.52" width="9.27" height="8.94"/>
    <rect class="cls-7" x="260.23" y="260.59" width="9.27" height="8.94"/>
    <rect class="cls-7" x="260.23" y="251.65" width="9.27" height="8.94"/>
    <rect class="cls-4" x="260.23" y="242.72" width="9.27" height="8.94"/>
    <rect class="cls-4" x="260.23" y="233.78" width="9.27" height="8.94"/>
    <rect class="cls-4" x="260.23" y="224.85" width="9.27" height="8.94"/>
    <rect class="cls-3" x="260.23" y="215.91" width="9.27" height="8.94"/>
    <rect class="cls-3" x="260.23" y="206.98" width="9.27" height="8.94"/>
    <rect class="cls-2" x="260.23" y="198.04" width="9.27" height="8.94"/>
    <rect class="cls-4" x="260.23" y="189.11" width="9.27" height="8.94"/>
    <rect class="cls-4" x="260.23" y="180.17" width="9.27" height="8.94"/>
    <rect class="cls-2" x="260.23" y="171.24" width="9.27" height="8.94"/>
    <rect class="cls-4" x="260.23" y="162.3" width="9.27" height="8.94"/>
    <rect class="cls-2" x="260.23" y="153.37" width="9.27" height="8.94"/>
    <rect x="250.96" y="376.76" width="9.27" height="8.94"/>
    <rect x="250.96" y="367.82" width="9.27" height="8.94"/>
    <rect x="250.96" y="358.89" width="9.27" height="8.94"/>
    <rect class="cls-2" x="250.96" y="349.95" width="9.27" height="8.94"/>
    <rect class="cls-2" x="250.96" y="341.02" width="9.27" height="8.94"/>
    <rect class="cls-2" x="250.96" y="332.08" width="9.27" height="8.94"/>
    <rect class="cls-2" x="250.96" y="323.13" width="9.27" height="8.95"/>
    <rect class="cls-6" x="250.96" y="314.2" width="9.27" height="8.94"/>
    <rect class="cls-6" x="250.96" y="305.26" width="9.27" height="8.94"/>
    <rect class="cls-6" x="250.96" y="296.33" width="9.27" height="8.94"/>
    <rect x="250.96" y="287.39" width="9.27" height="8.94"/>
    <rect x="250.96" y="278.46" width="9.27" height="8.94"/>
    <rect class="cls-7" x="250.96" y="269.52" width="9.27" height="8.94"/>
    <rect class="cls-2" x="250.96" y="260.59" width="9.27" height="8.94"/>
    <rect class="cls-2" x="250.96" y="251.65" width="9.27" height="8.94"/>
    <rect class="cls-4" x="250.96" y="242.72" width="9.27" height="8.94"/>
    <rect class="cls-4" x="250.96" y="233.78" width="9.27" height="8.94"/>
    <rect class="cls-4" x="250.96" y="224.85" width="9.27" height="8.94"/>
    <rect class="cls-4" x="250.96" y="215.91" width="9.27" height="8.94"/>
    <rect class="cls-4" x="250.96" y="206.98" width="9.27" height="8.94"/>
    <rect class="cls-2" x="250.96" y="198.04" width="9.27" height="8.94"/>
    <rect class="cls-2" x="250.96" y="189.11" width="9.27" height="8.94"/>
    <rect class="cls-4" x="250.96" y="180.17" width="9.27" height="8.94"/>
    <rect class="cls-2" x="250.96" y="171.24" width="9.27" height="8.94"/>
    <rect class="cls-4" x="250.96" y="162.3" width="9.27" height="8.94"/>
    <rect class="cls-4" x="250.96" y="153.37" width="9.27" height="8.94"/>
    <rect class="cls-2" x="250.96" y="144.42" width="9.27" height="8.95"/>
    <rect class="cls-2" x="250.96" y="126.55" width="9.27" height="8.94"/>
    <rect class="cls-2" x="250.96" y="117.61" width="9.27" height="8.94"/>
    <rect class="cls-2" x="250.96" y="108.68" width="9.27" height="8.94"/>
    <rect class="cls-2" x="250.96" y="99.74" width="9.27" height="8.94"/>
    <rect class="cls-2" x="250.96" y="90.81" width="9.27" height="8.94"/>
    <rect class="cls-2" x="250.96" y="81.87" width="9.27" height="8.94"/>
    <rect x="241.7" y="349.95" width="9.26" height="8.94"/>
    <rect x="241.7" y="341.02" width="9.26" height="8.94"/>
    <rect x="241.7" y="332.08" width="9.26" height="8.94"/>
    <rect class="cls-2" x="241.7" y="323.13" width="9.26" height="8.95"/>
    <rect class="cls-2" x="241.7" y="314.2" width="9.26" height="8.94"/>
    <rect class="cls-2" x="241.7" y="305.26" width="9.26" height="8.94"/>
    <rect class="cls-2" x="241.7" y="296.33" width="9.26" height="8.94"/>
    <rect class="cls-2" x="241.7" y="287.39" width="9.26" height="8.94"/>
    <rect class="cls-2" x="241.7" y="278.46" width="9.26" height="8.94"/>
    <rect class="cls-7" x="241.7" y="269.52" width="9.26" height="8.94"/>
    <rect class="cls-7" x="241.7" y="260.59" width="9.26" height="8.94"/>
    <rect class="cls-7" x="241.7" y="251.65" width="9.26" height="8.94"/>
    <rect class="cls-4" x="241.7" y="242.72" width="9.26" height="8.94"/>
    <rect class="cls-4" x="241.7" y="233.78" width="9.26" height="8.94"/>
    <rect class="cls-5" x="241.7" y="224.85" width="9.26" height="8.94"/>
    <rect class="cls-4" x="241.7" y="215.91" width="9.26" height="8.94"/>
    <rect class="cls-4" x="241.7" y="206.98" width="9.26" height="8.94"/>
    <rect class="cls-4" x="241.7" y="198.04" width="9.26" height="8.94"/>
    <rect class="cls-2" x="241.7" y="189.11" width="9.26" height="8.94"/>
    <rect class="cls-4" x="241.7" y="180.17" width="9.26" height="8.94"/>
    <rect class="cls-2" x="241.7" y="171.24" width="9.26" height="8.94"/>
    <rect class="cls-2" x="241.7" y="162.3" width="9.26" height="8.94"/>
    <rect class="cls-2" x="241.7" y="153.37" width="9.26" height="8.94"/>
    <rect class="cls-2" x="241.7" y="144.42" width="9.26" height="8.95"/>
    <rect class="cls-2" x="241.7" y="135.48" width="9.26" height="8.94"/>
    <rect class="cls-2" x="241.7" y="126.55" width="9.26" height="8.94"/>
    <rect class="cls-2" x="241.7" y="117.61" width="9.26" height="8.94"/>
    <rect class="cls-2" x="241.7" y="108.68" width="9.26" height="8.94"/>
    <rect class="cls-2" x="241.7" y="99.74" width="9.26" height="8.94"/>
    <rect class="cls-2" x="241.7" y="90.81" width="9.26" height="8.94"/>
    <rect class="cls-2" x="241.7" y="81.87" width="9.26" height="8.94"/>
    <rect class="cls-2" x="241.7" y="72.94" width="9.26" height="8.94"/>
    <rect x="232.42" y="323.13" width="9.27" height="8.95"/>
    <rect x="232.42" y="314.2" width="9.27" height="8.94"/>
    <rect x="232.42" y="305.26" width="9.27" height="8.94"/>
    <rect x="232.42" y="296.33" width="9.27" height="8.94"/>
    <rect x="232.42" y="287.39" width="9.27" height="8.94"/>
    <rect class="cls-2" x="232.42" y="278.46" width="9.27" height="8.94"/>
    <rect class="cls-2" x="232.42" y="269.52" width="9.27" height="8.94"/>
    <rect class="cls-2" x="232.42" y="260.59" width="9.27" height="8.94"/>
    <rect class="cls-2" x="232.42" y="251.65" width="9.27" height="8.94"/>
    <rect class="cls-4" x="232.42" y="242.72" width="9.27" height="8.94"/>
    <rect class="cls-5" x="232.42" y="233.78" width="9.27" height="8.94"/>
    <rect class="cls-5" x="232.42" y="224.85" width="9.27" height="8.94"/>
    <rect class="cls-3" x="232.42" y="215.91" width="9.27" height="8.94"/>
    <rect class="cls-3" x="232.42" y="206.98" width="9.27" height="8.94"/>
    <rect class="cls-4" x="232.42" y="198.04" width="9.27" height="8.94"/>
    <rect class="cls-2" x="232.42" y="189.11" width="9.27" height="8.94"/>
    <rect class="cls-4" x="232.42" y="180.17" width="9.27" height="8.94"/>
    <rect class="cls-2" x="232.42" y="171.24" width="9.27" height="8.94"/>
    <rect class="cls-2" x="232.42" y="162.3" width="9.27" height="8.94"/>
    <rect class="cls-2" x="232.42" y="153.37" width="9.27" height="8.94"/>
    <rect class="cls-2" x="232.42" y="144.42" width="9.27" height="8.95"/>
    <rect class="cls-2" x="232.42" y="135.48" width="9.27" height="8.94"/>
    <rect class="cls-2" x="232.42" y="126.55" width="9.27" height="8.94"/>
    <rect class="cls-5" x="232.42" y="117.61" width="9.27" height="8.94"/>
    <rect class="cls-5" x="232.42" y="108.68" width="9.27" height="8.94"/>
    <rect class="cls-5" x="232.42" y="99.74" width="9.27" height="8.94"/>
    <rect class="cls-2" x="232.42" y="90.81" width="9.27" height="8.94"/>
    <rect class="cls-4" x="232.42" y="81.87" width="9.27" height="8.94"/>
    <rect class="cls-2" x="232.42" y="72.94" width="9.27" height="8.94"/>
    <rect class="cls-2" x="232.42" y="64" width="9.27" height="8.94"/>
    <rect x="223.17" y="287.39" width="9.26" height="8.94"/>
    <rect x="223.17" y="278.46" width="9.26" height="8.94"/>
    <rect class="cls-2" x="223.17" y="269.52" width="9.26" height="8.94"/>
    <rect class="cls-2" x="223.17" y="260.59" width="9.26" height="8.94"/>
    <rect class="cls-4" x="223.17" y="251.65" width="9.26" height="8.94"/>
    <rect class="cls-4" x="223.17" y="242.72" width="9.26" height="8.94"/>
    <rect class="cls-5" x="223.17" y="233.78" width="9.26" height="8.94"/>
    <rect class="cls-5" x="223.17" y="224.85" width="9.26" height="8.94"/>
    <rect class="cls-3" x="223.17" y="215.91" width="9.26" height="8.94"/>
    <rect class="cls-3" x="223.17" y="206.98" width="9.26" height="8.94"/>
    <rect class="cls-4" x="223.17" y="198.04" width="9.26" height="8.94"/>
    <rect class="cls-2" x="223.17" y="189.11" width="9.26" height="8.94"/>
    <rect class="cls-4" x="223.17" y="180.17" width="9.26" height="8.94"/>
    <rect class="cls-2" x="223.17" y="171.24" width="9.26" height="8.94"/>
    <rect class="cls-4" x="223.17" y="162.3" width="9.26" height="8.94"/>
    <rect class="cls-4" x="223.17" y="153.37" width="9.26" height="8.94"/>
    <rect class="cls-4" x="223.17" y="144.42" width="9.26" height="8.95"/>
    <rect class="cls-4" x="223.17" y="135.48" width="9.26" height="8.94"/>
    <rect class="cls-5" x="223.17" y="126.55" width="9.26" height="8.94"/>
    <rect x="223.17" y="117.61" width="9.26" height="8.94"/>
    <rect class="cls-5" x="223.17" y="108.68" width="9.26" height="8.94"/>
    <rect x="223.17" y="99.74" width="9.26" height="8.94"/>
    <rect class="cls-2" x="223.17" y="90.81" width="9.26" height="8.94"/>
    <rect class="cls-2" x="223.17" y="81.87" width="9.26" height="8.94"/>
    <rect class="cls-4" x="223.17" y="72.94" width="9.26" height="8.94"/>
    <rect class="cls-2" x="223.17" y="64" width="9.26" height="8.94"/>
    <rect x="213.89" y="269.52" width="9.27" height="8.94"/>
    <rect class="cls-2" x="213.89" y="260.59" width="9.27" height="8.94"/>
    <rect class="cls-4" x="213.89" y="251.65" width="9.27" height="8.94"/>
    <rect class="cls-4" x="213.89" y="242.72" width="9.27" height="8.94"/>
    <rect class="cls-5" x="213.89" y="233.78" width="9.27" height="8.94"/>
    <rect class="cls-5" x="213.89" y="224.85" width="9.27" height="8.94"/>
    <rect class="cls-4" x="213.89" y="215.91" width="9.27" height="8.94"/>
    <rect class="cls-4" x="213.89" y="206.98" width="9.27" height="8.94"/>
    <rect class="cls-4" x="213.89" y="198.04" width="9.27" height="8.94"/>
    <rect class="cls-2" x="213.89" y="189.11" width="9.27" height="8.94"/>
    <rect class="cls-4" x="213.89" y="180.17" width="9.27" height="8.94"/>
    <rect class="cls-2" x="213.89" y="171.24" width="9.27" height="8.94"/>
    <rect class="cls-4" x="213.89" y="162.3" width="9.27" height="8.94"/>
    <rect class="cls-4" x="213.89" y="153.37" width="9.27" height="8.94"/>
    <rect class="cls-4" x="213.89" y="144.42" width="9.27" height="8.95"/>
    <rect class="cls-4" x="213.89" y="135.48" width="9.27" height="8.94"/>
    <rect class="cls-5" x="213.89" y="126.55" width="9.27" height="8.94"/>
    <rect x="213.89" y="117.61" width="9.27" height="8.94"/>
    <rect class="cls-5" x="213.89" y="108.68" width="9.27" height="8.94"/>
    <rect class="cls-5" x="213.89" y="99.74" width="9.27" height="8.94"/>
    <rect class="cls-2" x="213.89" y="90.81" width="9.27" height="8.94"/>
    <rect class="cls-2" x="213.89" y="81.87" width="9.27" height="8.94"/>
    <rect class="cls-4" x="213.89" y="72.94" width="9.27" height="8.94"/>
    <rect class="cls-2" x="213.89" y="64" width="9.27" height="8.94"/>
    <rect x="204.64" y="287.39" width="9.26" height="8.94"/>
    <rect x="204.64" y="278.46" width="9.26" height="8.94"/>
    <rect class="cls-2" x="204.64" y="269.52" width="9.26" height="8.94"/>
    <rect class="cls-2" x="204.64" y="260.59" width="9.26" height="8.94"/>
    <rect class="cls-2" x="204.64" y="251.65" width="9.26" height="8.94"/>
    <rect class="cls-4" x="204.64" y="242.72" width="9.26" height="8.94"/>
    <rect class="cls-5" x="204.64" y="233.78" width="9.26" height="8.94"/>
    <rect class="cls-5" x="204.64" y="224.85" width="9.26" height="8.94"/>
    <rect class="cls-4" x="204.64" y="215.91" width="9.26" height="8.94"/>
    <rect class="cls-4" x="204.64" y="206.98" width="9.26" height="8.94"/>
    <rect class="cls-4" x="204.64" y="198.04" width="9.26" height="8.94"/>
    <rect class="cls-2" x="204.64" y="189.11" width="9.26" height="8.94"/>
    <rect class="cls-4" x="204.64" y="180.17" width="9.26" height="8.94"/>
    <rect class="cls-2" x="204.64" y="171.24" width="9.26" height="8.94"/>
    <rect class="cls-4" x="204.64" y="162.3" width="9.26" height="8.94"/>
    <rect class="cls-4" x="204.64" y="153.37" width="9.26" height="8.94"/>
    <rect class="cls-4" x="204.64" y="144.42" width="9.26" height="8.95"/>
    <rect class="cls-4" x="204.64" y="135.48" width="9.26" height="8.94"/>
    <rect class="cls-5" x="204.64" y="126.55" width="9.26" height="8.94"/>
    <rect x="204.64" y="117.61" width="9.26" height="8.94"/>
    <rect class="cls-5" x="204.64" y="108.68" width="9.26" height="8.94"/>
    <rect x="204.64" y="99.74" width="9.26" height="8.94"/>
    <rect class="cls-2" x="204.64" y="90.81" width="9.26" height="8.94"/>
    <rect class="cls-2" x="204.64" y="81.87" width="9.26" height="8.94"/>
    <rect class="cls-4" x="204.64" y="72.94" width="9.26" height="8.94"/>
    <rect class="cls-2" x="204.64" y="64" width="9.26" height="8.94"/>
    <rect x="195.36" y="323.13" width="9.27" height="8.95"/>
    <rect x="195.36" y="314.2" width="9.27" height="8.94"/>
    <rect x="195.36" y="305.26" width="9.27" height="8.94"/>
    <rect x="195.36" y="296.33" width="9.27" height="8.94"/>
    <rect x="195.36" y="287.39" width="9.27" height="8.94"/>
    <rect class="cls-2" x="195.36" y="278.46" width="9.27" height="8.94"/>
    <rect class="cls-2" x="195.36" y="269.52" width="9.27" height="8.94"/>
    <rect class="cls-2" x="195.36" y="260.59" width="9.27" height="8.94"/>
    <rect class="cls-2" x="195.36" y="251.65" width="9.27" height="8.94"/>
    <rect class="cls-4" x="195.36" y="242.72" width="9.27" height="8.94"/>
    <rect class="cls-5" x="195.36" y="233.78" width="9.27" height="8.94"/>
    <rect class="cls-5" x="195.36" y="224.85" width="9.27" height="8.94"/>
    <rect class="cls-3" x="195.36" y="215.91" width="9.27" height="8.94"/>
    <rect class="cls-3" x="195.36" y="206.98" width="9.27" height="8.94"/>
    <rect class="cls-4" x="195.36" y="198.04" width="9.27" height="8.94"/>
    <rect class="cls-2" x="195.36" y="189.11" width="9.27" height="8.94"/>
    <rect class="cls-4" x="195.36" y="180.17" width="9.27" height="8.94"/>
    <rect class="cls-4" x="195.36" y="171.24" width="9.27" height="8.94"/>
    <rect class="cls-2" x="195.36" y="162.3" width="9.27" height="8.94"/>
    <rect class="cls-2" x="195.36" y="153.37" width="9.27" height="8.94"/>
    <rect class="cls-2" x="195.36" y="144.42" width="9.27" height="8.95"/>
    <rect class="cls-2" x="195.36" y="135.48" width="9.27" height="8.94"/>
    <rect class="cls-2" x="195.36" y="126.55" width="9.27" height="8.94"/>
    <rect class="cls-5" x="195.36" y="117.61" width="9.27" height="8.94"/>
    <rect class="cls-5" x="195.36" y="108.68" width="9.27" height="8.94"/>
    <rect class="cls-5" x="195.36" y="99.74" width="9.27" height="8.94"/>
    <rect class="cls-2" x="195.36" y="90.81" width="9.27" height="8.94"/>
    <rect class="cls-4" x="195.36" y="81.87" width="9.27" height="8.94"/>
    <rect class="cls-2" x="195.36" y="72.94" width="9.27" height="8.94"/>
    <rect class="cls-2" x="195.36" y="64" width="9.27" height="8.94"/>
    <rect x="186.09" y="349.95" width="9.27" height="8.94"/>
    <rect x="186.09" y="341.02" width="9.27" height="8.94"/>
    <rect x="186.09" y="332.08" width="9.27" height="8.94"/>
    <rect class="cls-2" x="186.09" y="323.13" width="9.27" height="8.95"/>
    <rect class="cls-2" x="186.09" y="314.2" width="9.27" height="8.94"/>
    <rect class="cls-2" x="186.09" y="305.26" width="9.27" height="8.94"/>
    <rect class="cls-2" x="186.09" y="296.33" width="9.27" height="8.94"/>
    <rect class="cls-2" x="186.09" y="287.39" width="9.27" height="8.94"/>
    <rect class="cls-2" x="186.09" y="278.46" width="9.27" height="8.94"/>
    <rect class="cls-7" x="186.09" y="269.52" width="9.27" height="8.94"/>
    <rect class="cls-7" x="186.09" y="260.59" width="9.27" height="8.94"/>
    <rect class="cls-7" x="186.09" y="251.65" width="9.27" height="8.94"/>
    <rect class="cls-4" x="186.09" y="242.72" width="9.27" height="8.94"/>
    <rect class="cls-5" x="186.09" y="233.78" width="9.27" height="8.94"/>
    <rect class="cls-5" x="186.09" y="224.85" width="9.27" height="8.94"/>
    <rect class="cls-3" x="186.09" y="215.91" width="9.27" height="8.94"/>
    <rect class="cls-3" x="186.09" y="206.98" width="9.27" height="8.94"/>
    <rect class="cls-4" x="186.09" y="198.04" width="9.27" height="8.94"/>
    <rect class="cls-2" x="186.09" y="189.11" width="9.27" height="8.94"/>
    <rect class="cls-4" x="186.09" y="180.17" width="9.27" height="8.94"/>
    <rect class="cls-4" x="186.09" y="171.24" width="9.27" height="8.94"/>
    <rect class="cls-2" x="186.09" y="162.3" width="9.27" height="8.94"/>
    <rect class="cls-2" x="186.09" y="153.37" width="9.27" height="8.94"/>
    <rect class="cls-2" x="186.09" y="144.42" width="9.27" height="8.95"/>
    <rect class="cls-2" x="186.09" y="135.48" width="9.27" height="8.94"/>
    <rect class="cls-2" x="186.09" y="126.55" width="9.27" height="8.94"/>
    <rect class="cls-2" x="186.09" y="117.61" width="9.27" height="8.94"/>
    <rect class="cls-2" x="186.09" y="108.68" width="9.27" height="8.94"/>
    <rect class="cls-2" x="186.09" y="99.74" width="9.27" height="8.94"/>
    <rect class="cls-2" x="186.09" y="90.81" width="9.27" height="8.94"/>
    <rect class="cls-2" x="186.09" y="81.87" width="9.27" height="8.94"/>
    <rect class="cls-2" x="186.09" y="72.94" width="9.27" height="8.94"/>
    <rect x="176.83" y="376.76" width="9.26" height="8.94"/>
    <rect x="176.83" y="367.82" width="9.26" height="8.94"/>
    <rect x="176.83" y="358.89" width="9.26" height="8.94"/>
    <rect class="cls-2" x="176.83" y="349.95" width="9.26" height="8.94"/>
    <rect class="cls-2" x="176.83" y="341.02" width="9.26" height="8.94"/>
    <rect class="cls-2" x="176.83" y="332.08" width="9.26" height="8.94"/>
    <rect class="cls-2" x="176.83" y="323.13" width="9.26" height="8.95"/>
    <rect class="cls-6" x="176.83" y="314.2" width="9.26" height="8.94"/>
    <rect class="cls-6" x="176.83" y="305.26" width="9.26" height="8.94"/>
    <rect class="cls-6" x="176.83" y="296.33" width="9.26" height="8.94"/>
    <rect x="176.83" y="287.39" width="9.26" height="8.94"/>
    <rect x="176.83" y="278.46" width="9.26" height="8.94"/>
    <rect class="cls-7" x="176.83" y="269.52" width="9.26" height="8.94"/>
    <rect class="cls-2" x="176.83" y="260.59" width="9.26" height="8.94"/>
    <rect class="cls-2" x="176.83" y="251.65" width="9.26" height="8.94"/>
    <rect class="cls-4" x="176.83" y="242.72" width="9.26" height="8.94"/>
    <rect class="cls-5" x="176.83" y="233.78" width="9.26" height="8.94"/>
    <rect class="cls-5" x="176.83" y="224.85" width="9.26" height="8.94"/>
    <rect class="cls-4" x="176.83" y="215.91" width="9.26" height="8.94"/>
    <rect class="cls-4" x="176.83" y="206.98" width="9.26" height="8.94"/>
    <rect class="cls-4" x="176.83" y="198.04" width="9.26" height="8.94"/>
    <rect class="cls-2" x="176.83" y="189.11" width="9.26" height="8.94"/>
    <rect class="cls-2" x="176.83" y="180.17" width="9.26" height="8.94"/>
    <rect class="cls-4" x="176.83" y="171.24" width="9.26" height="8.94"/>
    <rect class="cls-4" x="176.83" y="162.3" width="9.26" height="8.94"/>
    <rect class="cls-4" x="176.83" y="153.37" width="9.26" height="8.94"/>
    <rect class="cls-2" x="176.83" y="144.42" width="9.26" height="8.95"/>
    <rect class="cls-2" x="176.83" y="126.55" width="9.26" height="8.94"/>
    <rect class="cls-2" x="176.83" y="117.61" width="9.26" height="8.94"/>
    <rect class="cls-2" x="176.83" y="108.68" width="9.26" height="8.94"/>
    <rect class="cls-2" x="176.83" y="99.74" width="9.26" height="8.94"/>
    <rect class="cls-2" x="176.83" y="90.81" width="9.26" height="8.94"/>
    <rect class="cls-2" x="176.83" y="81.87" width="9.26" height="8.94"/>
    <rect x="167.56" y="403.56" width="9.27" height="8.94"/>
    <rect x="167.56" y="394.63" width="9.27" height="8.94"/>
    <rect x="167.56" y="385.69" width="9.27" height="8.94"/>
    <rect class="cls-2" x="167.56" y="376.76" width="9.27" height="8.94"/>
    <rect class="cls-2" x="167.56" y="367.82" width="9.27" height="8.94"/>
    <rect class="cls-6" x="167.56" y="358.89" width="9.27" height="8.94"/>
    <rect class="cls-6" x="167.56" y="349.95" width="9.27" height="8.94"/>
    <rect x="167.56" y="341.02" width="9.27" height="8.94"/>
    <rect x="167.56" y="332.08" width="9.27" height="8.94"/>
    <rect x="167.56" y="323.13" width="9.27" height="8.95"/>
    <rect x="167.56" y="314.2" width="9.27" height="8.94"/>
    <rect x="167.56" y="305.26" width="9.27" height="8.94"/>
    <rect x="167.56" y="296.33" width="9.27" height="8.94"/>
    <rect class="cls-7" x="167.56" y="269.52" width="9.27" height="8.94"/>
    <rect class="cls-7" x="167.56" y="260.59" width="9.27" height="8.94"/>
    <rect class="cls-7" x="167.56" y="251.65" width="9.27" height="8.94"/>
    <rect class="cls-4" x="167.56" y="242.72" width="9.27" height="8.94"/>
    <rect class="cls-5" x="167.56" y="233.78" width="9.27" height="8.94"/>
    <rect class="cls-5" x="167.56" y="224.85" width="9.27" height="8.94"/>
    <rect class="cls-5" x="167.56" y="215.91" width="9.27" height="8.94"/>
    <rect class="cls-5" x="167.56" y="206.98" width="9.27" height="8.94"/>
    <rect class="cls-5" x="167.56" y="198.04" width="9.27" height="8.94"/>
    <rect class="cls-2" x="167.56" y="189.11" width="9.27" height="8.94"/>
    <rect class="cls-2" x="167.56" y="180.17" width="9.27" height="8.94"/>
    <rect class="cls-2" x="167.56" y="171.24" width="9.27" height="8.94"/>
    <rect class="cls-4" x="167.56" y="162.3" width="9.27" height="8.94"/>
    <rect class="cls-2" x="167.56" y="153.37" width="9.27" height="8.94"/>
    <rect x="158.3" y="403.56" width="9.26" height="8.94"/>
    <rect class="cls-6" x="158.3" y="394.63" width="9.26" height="8.94"/>
    <rect class="cls-2" x="158.3" y="385.69" width="9.26" height="8.94"/>
    <rect class="cls-6" x="158.3" y="376.76" width="9.26" height="8.94"/>
    <rect class="cls-6" x="158.3" y="367.82" width="9.26" height="8.94"/>
    <rect x="158.3" y="358.89" width="9.26" height="8.94"/>
    <rect x="158.3" y="349.95" width="9.26" height="8.94"/>
    <rect class="cls-4" x="158.3" y="242.72" width="9.26" height="8.94"/>
    <rect class="cls-5" x="158.3" y="233.78" width="9.26" height="8.94"/>
    <rect class="cls-5" x="158.3" y="224.85" width="9.26" height="8.94"/>
    <rect class="cls-5" x="158.3" y="215.91" width="9.26" height="8.94"/>
    <rect class="cls-5" x="158.3" y="206.98" width="9.26" height="8.94"/>
    <rect class="cls-5" x="158.3" y="198.04" width="9.26" height="8.94"/>
    <rect class="cls-2" x="158.3" y="189.11" width="9.26" height="8.94"/>
    <rect class="cls-2" x="158.3" y="180.17" width="9.26" height="8.94"/>
    <rect class="cls-2" x="158.3" y="171.24" width="9.26" height="8.94"/>
    <rect class="cls-2" x="158.3" y="162.3" width="9.26" height="8.94"/>
    <rect x="149.03" y="403.56" width="9.27" height="8.94"/>
    <rect class="cls-6" x="149.03" y="394.63" width="9.27" height="8.94"/>
    <rect x="149.03" y="385.69" width="9.27" height="8.94"/>
    <rect x="149.03" y="376.76" width="9.27" height="8.94"/>
    <rect x="149.03" y="367.82" width="9.27" height="8.94"/>
    <rect class="cls-4" x="149.03" y="242.72" width="9.27" height="8.94"/>
    <rect class="cls-5" x="149.03" y="233.78" width="9.27" height="8.94"/>
    <rect class="cls-5" x="149.03" y="224.85" width="9.27" height="8.94"/>
    <rect class="cls-5" x="149.03" y="215.91" width="9.27" height="8.94"/>
    <rect class="cls-5" x="149.03" y="206.98" width="9.27" height="8.94"/>
    <rect class="cls-5" x="149.03" y="198.04" width="9.27" height="8.94"/>
    <rect class="cls-4" x="149.03" y="189.11" width="9.27" height="8.94"/>
    <rect class="cls-4" x="149.03" y="180.17" width="9.27" height="8.94"/>
    <rect x="139.77" y="403.56" width="9.26" height="8.94"/>
    <rect x="139.77" y="394.63" width="9.26" height="8.94"/>
    <rect class="cls-4" x="139.77" y="242.72" width="9.26" height="8.94"/>
    <rect class="cls-4" x="139.77" y="233.78" width="9.26" height="8.94"/>
    <rect class="cls-4" x="139.77" y="224.85" width="9.26" height="8.94"/>
    <rect class="cls-4" x="139.77" y="215.91" width="9.26" height="8.94"/>
    <rect class="cls-4" x="139.77" y="206.98" width="9.26" height="8.94"/>
    <rect class="cls-4" x="139.77" y="198.04" width="9.26" height="8.94"/>
    <rect class="cls-4" x="139.77" y="189.11" width="9.26" height="8.94"/>
    <rect class="cls-4" x="139.77" y="180.17" width="9.26" height="8.94"/>
    <rect x="130.5" y="403.56" width="9.27" height="8.94"/>
    <rect x="130.5" y="394.63" width="9.27" height="8.94"/>
  </g>
</svg>
